<?xml version="1.0" encoding="UTF-8" standalone="no"?><!DOCTYPE svg PUBLIC "-//W3C//DTD SVG 1.1//EN" "http://www.w3.org/Graphics/SVG/1.1/DTD/svg11.dtd"><svg width="100%" height="100%" viewBox="0 0 2996 1092" version="1.1" xmlns="http://www.w3.org/2000/svg" xmlns:xlink="http://www.w3.org/1999/xlink" xml:space="preserve" xmlns:serif="http://www.serif.com/" style="fill-rule:evenodd;clip-rule:evenodd;stroke-linejoin:round;stroke-miterlimit:2;"><g><path d="M1543.28,424.865c6.333,-17.417 3.167,-34.833 2.375,-52.25c-11.083,-11.875 -38,-14.25 -59.375,-17.417c-18.208,61.75 -40.375,168.625 -58.583,281.042c-41.167,9.5 -72.042,18.208 -76.792,21.375c-10.292,9.5 13.458,52.25 34.042,47.5l34.042,-7.125c-13.458,95.792 -23.75,190.792 -25.333,262.833c5.542,7.917 65.708,38.792 65.708,15.833c0,-78.375 10.292,-183.667 26.917,-291.333c53.833,-9.5 114.792,-18.208 155.167,-20.583c-8.708,67.292 -16.625,135.375 -22.167,193.958c-0.792,8.708 -9.5,-5.542 -12.667,1.583c-7.917,15.833 0.792,42.75 14.25,65.708c5.542,7.917 64.125,35.625 64.125,12.667c0,-110.833 42.75,-402.958 79.167,-588.208c-9.5,-9.5 -30.083,-18.208 -45.917,-16.625c-16.625,1.583 -19.792,13.458 -22.167,22.167c-16.625,62.542 -34.042,162.292 -49.083,266.792l-14.25,-15.042c-7.125,-6.333 -71.25,3.167 -136.958,15.042c11.083,-67.292 23.75,-133.792 37.208,-193.958l10.292,-3.958Z" style="fill:#fff;fill-rule:nonzero;"/><path d="M1745.155,748.657c-2.375,87.083 27.708,196.333 110.833,196.333c102.125,0 132.208,-188.417 135.375,-275.5c2.375,-82.333 -11.083,-159.125 -94.208,-159.125c-16.625,0 -27.708,9.5 -27.708,9.5c-2.375,-7.125 -10.292,-14.25 -20.583,-19.792c-49.875,15.042 -99.75,145.667 -103.708,248.583Zm50.667,31.667c0.792,-29.292 5.542,-51.458 5.542,-51.458c4.75,3.958 22.167,10.292 22.958,7.125c7.917,-45.125 45.125,-183.667 91.042,-183.667c31.667,0 26.917,56.208 26.125,79.167c-1.583,46.708 -26.125,258.083 -99.75,258.083c-32.458,0 -48.292,-49.083 -45.917,-109.25Z" style="fill:#fff;fill-rule:nonzero;"/><path d="M2144.946,670.282c-5.542,62.542 -8.708,136.958 -7.917,202.667c0.792,60.167 7.125,94.208 42.75,94.208c16.625,0 26.917,-11.875 26.917,-11.875c-0.792,-74.417 36.417,-222.458 68.875,-292.917l9.5,0c-7.917,40.375 -23.75,122.708 -23.75,156.75c0,64.125 15.042,121.125 68.875,121.125c55.417,0 89.458,-60.958 89.458,-95c0,-19.792 -17.417,-21.375 -17.417,-21.375c-6.333,20.583 -22.167,62.542 -48.292,62.542c-22.167,0 -32.458,-19.792 -32.458,-60.167c0,-88.667 41.958,-208.208 48.292,-288.958c2.375,-25.333 -34.042,-39.583 -55.417,-39.583c-7.125,0 -14.25,0 -17.417,7.125c-44.333,85.5 -70.458,186.833 -100.542,274.708l-3.167,0c1.583,-62.542 14.25,-150.417 19,-206.625c2.375,-25.333 -29.292,-35.625 -50.667,-35.625c-7.125,0 -14.25,0 -17.417,7.125c-24.542,58.583 -52.25,140.125 -82.333,228l-3.167,0c0,-51.458 24.542,-152.792 40.375,-231.167c2.375,-11.875 -22.958,-27.708 -47.5,-27.708c-18.208,0 -55.417,190.792 -55.417,327.75c0,64.917 17.417,102.917 53.042,102.917c16.625,0 26.917,-11.875 26.917,-11.875c-0.792,-74.417 37.208,-192.375 61.75,-262.042l7.125,0Z" style="fill:#fff;fill-rule:nonzero;"/><path d="M2495.655,469.198c49.875,0 66.5,-46.708 66.5,-72.042c0,-21.375 -11.875,-30.083 -23.75,-36.417c5.542,-25.333 -6.333,-30.083 -26.125,-30.083c-39.583,0 -49.875,66.5 -49.875,88.667c0,35.625 20.583,49.875 33.25,49.875Zm-99.75,387.125c0,62.542 22.958,95 68.083,95c87.875,0 116.375,-91.042 116.375,-140.917c0,-31.667 -29.292,-23.75 -29.292,-23.75c-2.375,31.667 -16.625,117.958 -65.708,117.958c-12.667,0 -23.75,-14.25 -23.75,-43.542c-0.792,-61.75 35.625,-215.333 59.375,-302.417c7.125,-26.917 -59.375,-29.292 -57.792,-29.292c-5.542,0 -11.875,1.583 -14.25,10.292c-15.833,56.208 -53.042,233.542 -53.042,316.667Z" style="fill:#fff;fill-rule:nonzero;"/><path d="M2536.821,826.24c0,98.958 57,155.167 117.958,155.167c87.875,0 130.625,-116.375 130.625,-185.25c0,-22.167 -10.292,-38 -22.958,-38c-11.083,0 -11.083,8.708 -11.083,8.708c0,52.25 -49.083,151.208 -110.042,151.208c-40.375,0 -54.625,-27.708 -54.625,-64.917c0,-64.125 14.25,-106.083 14.25,-106.083c0,0 11.875,33.25 45.917,33.25c62.542,0 90.25,-91.833 90.25,-193.167c0,-72.833 -34.833,-96.583 -64.917,-96.583c-69.667,0 -135.375,203.458 -135.375,335.667Zm73.625,-113.208c8.708,-57.792 30.875,-122.708 49.875,-165.458c4.75,-11.083 8.708,-14.25 11.875,-14.25c3.958,0 9.5,3.958 9.5,37.208c0,72.833 -23.75,162.292 -51.458,162.292c-15.833,0 -19.792,-19.792 -19.792,-19.792Z" style="fill:#fff;fill-rule:nonzero;"/><path d="M2817.071,628.323c5.542,-6.333 65.708,-38 86.292,-38.792c7.917,0 10.292,21.375 18.208,21.375c19.792,0 73.625,-43.542 73.625,-73.625c0,-14.25 -18.208,-34.833 -26.125,-34.833c-11.875,0 -204.25,68.875 -207.417,102.125c-1.583,20.583 6.333,48.292 20.583,60.167c52.25,6.333 126.667,64.917 126.667,145.667c0,53.833 -23.75,90.25 -73.625,90.25c-45.917,0 -56.208,-38.792 -56.208,-45.917c0,-7.125 34.042,-69.667 34.042,-95c0,-7.125 -24.542,-29.292 -35.625,-29.292c-28.5,0 -47.5,62.542 -47.5,91.833c0,62.542 64.125,136.958 130.625,136.958c54.625,0 102.917,-34.042 102.917,-125.083c0,-137.75 -145.667,-202.667 -145.667,-202.667l-0.792,-3.167Z" style="fill:#fff;fill-rule:nonzero;"/></g><path d="M475.816,1071.155c-160.504,0 -291.087,-130.583 -291.087,-291.087l0,-291.596l-12.412,8.625c-0.879,0.604 -1.738,1.15 -2.613,1.662c-15.637,9.167 -33.342,14.025 -51.15,14.025c-34.517,0 -65.85,-17.658 -83.804,-47.237c-26.971,-44.421 -13.488,-101.242 31.358,-132.167l118.621,-78.525l0,-157.654c0,-42.108 34.254,-76.367 76.367,-76.367l47.875,0c42.108,0 76.367,34.258 76.367,76.367l0,24.871l65.587,-43.408c54.354,-37.654 118.333,-57.55 185.042,-57.55c66.867,0 130.983,19.992 185.421,57.808l383.933,262.117c0.617,0.417 1.254,0.879 1.871,1.358c45.346,35.058 48.162,95.829 22.358,130.6c-18.567,25.038 -47.496,39.988 -77.387,39.988c-17.254,0 -34.138,-4.838 -50.183,-14.371c-0.829,-0.496 -1.617,-1 -2.379,-1.533l-12.396,-8.613l0,291.6c0,160.504 -130.579,291.087 -291.087,291.087l-320.3,0Z" style="fill:#fff;fill-rule:nonzero;"/><path d="M308.972,0l-47.879,0c-53.596,0 -97.196,43.604 -97.196,97.2l0,146.462l-108.958,72.121c-0.221,0.146 -0.442,0.296 -0.658,0.446c-54.071,37.292 -70.125,106.129 -37.342,160.129c21.767,35.854 59.754,57.258 101.612,57.258c15.488,0 30.892,-3.029 45.346,-8.854l0,255.304c0,171.996 139.925,311.921 311.917,311.921l320.304,0c171.992,0 311.921,-139.925 311.921,-311.921l0,-255.15c14.288,5.917 29.054,8.9 44.125,8.9c36.458,0 71.642,-18.1 94.125,-48.412c31.675,-42.683 28.658,-116.958 -26.329,-159.471c-1,-0.771 -1.975,-1.475 -2.962,-2.15l-383.871,-262.071c-57.913,-40.192 -126.083,-61.433 -197.158,-61.433c-70.896,0 -138.908,21.137 -196.725,61.133l-33.979,22.487c-6.5,-47.325 -47.204,-83.9 -96.292,-83.9m0,41.667c30.621,0 55.533,24.913 55.533,55.533l0,63.646l98.104,-64.933c51.862,-35.979 112.604,-53.967 173.354,-53.967c60.817,0 121.642,18.033 173.533,54.087l384.075,262.212c0.304,0.204 0.608,0.425 0.9,0.65c35.129,27.158 37.862,75.392 18.346,101.688c-13.188,17.783 -35.308,31.567 -60.654,31.567c-12.617,0 -26.025,-3.417 -39.542,-11.446c-0.375,-0.225 -0.75,-0.467 -1.113,-0.717l-45.137,-31.362l0,331.442c0,149.017 -121.237,270.254 -270.254,270.254l-320.304,0c-149.017,0 -270.25,-121.237 -270.25,-270.254l0,-331.437l-45.137,31.358c-0.396,0.271 -0.8,0.533 -1.213,0.775c-12.921,7.571 -26.929,11.188 -40.662,11.188c-26.212,0 -51.404,-13.183 -65.996,-37.217c-21.154,-34.842 -10.242,-79.637 25.379,-104.204l127.629,-84.479l0,-168.85c0,-30.621 24.908,-55.533 55.529,-55.533l47.879,0" style="fill:#fff;fill-rule:nonzero;"/><path d="M297.239,711.308c-10.583,-46.667 23,-92.083 49.125,-154.917c15.208,-36.583 24.917,-66.417 31.125,-94.417c4.5,-20.083 7.125,-39.208 8.708,-59.25c3.708,-47.917 25.5,-106.708 68.333,-149.917l0.042,-0.042l64.792,-45c70.083,-48.708 163.125,-48.708 233.208,0l47.75,33.208l247.292,171.792l0,367.292c0,138.917 -112.583,251.5 -251.5,251.5l-251.917,0c-71.083,0 -145.458,-61 -134.708,-114.708c11.833,-59.167 56.667,-74.417 153.333,-61.792c38.333,44.25 88.5,58.5 137.542,61.542c70.292,4.333 159.875,-47.292 174.208,-119.458c14.292,-72.167 16.167,-118.833 -2.5,-215.875c0,0 -37.958,32.333 -69.667,63.458c-67.208,-41.083 -131.292,-29.25 -180.417,-9.333c0,0 7.875,28.667 -12.958,69.083c-4.583,8.833 -10.5,18.208 -18.167,27.958c-16.542,21.083 -41.708,36.75 -70.167,46.625c-34.458,11.958 -73.75,15.5 -108.5,10.042c-63.458,-9.958 -104.417,-31.167 -114.958,-77.792" style="fill:#c57837;fill-rule:nonzero;"/><path d="M355.64,533.112c-17.125,49.504 -56.617,101.029 -60.179,154.15c-3.562,53.117 47.779,102.942 153.804,104.275c106.029,1.333 169.679,-61.158 172.725,-156.146c-106.2,66.275 -181.212,-42.863 -186.417,-90.983c-4.146,-38.35 -17.375,-81.654 -50.229,-131.233c0,0 -6.9,54.021 -29.704,119.937" style="fill:#fff;fill-rule:nonzero;"/><path d="M224.322,412.766l230.208,-159.958c-42.833,43.208 -64.625,102 -68.333,149.917c-1.583,20.042 -4.208,39.167 -8.708,59.25c-28.042,-23.417 -153.167,16.125 -153.167,148.625l0,-197.833Z" style="fill:#f8edc4;fill-rule:nonzero;"/><path d="M1182.989,373.725c26.708,20.667 28.417,57.292 14.792,75.667c-13.917,18.75 -43.458,34.292 -75.583,15.208l-74.583,-51.833l-247.292,-171.792l-47.75,-33.208c-70.083,-48.708 -163.125,-48.708 -233.208,0l-64.792,45l-0.042,0.042l-230.208,159.958l-74.583,51.833c-27.792,16.292 -63.958,8.75 -81.167,-19.583c-16.167,-26.667 -7.458,-60.125 20,-79.042l135.75,-89.833l0,-178.958c0,-20.292 16.458,-36.75 36.792,-36.75l47.875,0c20.292,0 36.75,16.458 36.75,36.75l0,98.542l127.375,-84.292c97.917,-68.042 227.792,-68.042 325.667,0l384.208,262.292Z" style="fill:#c1272d;fill-rule:nonzero;"/><path d="M544.198,1031.558l-68.375,0c-138.917,0 -251.5,-112.583 -251.5,-251.5l0,-169.458c0,-132.5 125.125,-172.042 153.167,-148.625c-6.208,28 -15.917,57.833 -31.125,94.417c-26.125,62.833 -59.708,108.25 -49.125,154.917c10.542,46.625 51.5,67.833 114.958,77.792c34.75,5.458 74.042,1.917 108.5,-10.042c11.083,32 25.5,56.833 42.125,76c-96.667,-12.625 -141.5,2.625 -153.333,61.792c-10.75,53.708 63.625,114.708 134.708,114.708" style="fill:#e0ca8d;fill-rule:nonzero;"/><path d="M609.03,704.475c20.833,-40.417 12.958,-69.083 12.958,-69.083c49.125,-19.917 113.208,-31.75 180.417,9.333c31.708,-31.125 69.667,-63.458 69.667,-63.458c18.667,97.042 16.792,143.708 2.5,215.875c-14.333,72.167 -103.917,123.792 -174.208,119.458c-49.042,-3.042 -99.208,-17.292 -137.542,-61.542c-16.625,-19.167 -31.042,-44 -42.125,-76c28.458,-9.875 53.625,-25.542 70.167,-46.625c7.667,-9.75 13.583,-19.125 18.167,-27.958" style="fill:#f8edc4;fill-rule:nonzero;"/><path d="M755.223,909.911c58.796,32.45 117.05,74.933 225.125,41.337c-66.246,50.962 -88.962,80.308 -205.025,80.308c-116.062,0 -182.362,0.329 -247.412,0c-65.05,-0.329 -128.85,-62.421 -118.421,-114.708c9.179,-46.017 43.467,-75.5 147.921,-62.058c87.546,65.462 137.717,69.487 197.812,55.121" style="fill:#fff;fill-rule:nonzero;"/><path d="M394.28,706.708c51.671,34.392 165.808,42.663 223.146,-22.025c-51.462,88.142 -96.658,111.529 -192.004,106.042c-95.342,-5.483 -67.642,-83.921 -31.142,-84.017" style="fill:#c3c7c9;fill-rule:nonzero;"/><path d="M527.91,1031.558c-78.375,-4.267 -120.783,-65.612 -118.421,-114.708c2.363,-49.096 64.85,-87.587 147.921,-62.058l34.079,29.292c-60.3,-5.025 -100.329,7.537 -113.058,38.942c-12.496,30.825 -8.796,77.887 103.237,98.483l-53.758,10.05Z" style="fill:#c3c7c9;fill-rule:nonzero;"/><path d="M590.864,732.433c3.017,68.054 22.458,109.121 72.167,131.125c49.521,21.925 106.867,25.517 178.042,-4.933c-100.467,65.058 -174.475,77.663 -239.9,25.679c-65.429,-51.979 -78.167,-73.196 -80.475,-105.246c0,0 52,-18.667 70.167,-46.625" style="fill:#e0ca8d;fill-rule:nonzero;"/><path d="M308.243,738.082c8.167,73.921 43.408,121.604 146.287,119.154c64.167,-10.029 108.292,-2.179 108.292,-2.179c0,0 -37.987,-48.546 -42.125,-76c-56.246,17.55 -156.667,26.038 -212.454,-40.975" style="fill:#ad916c;fill-rule:nonzero;"/><path d="M257.93,504.985c12.942,-72.262 87.933,-135.896 135.642,-146.679c-8.229,54.867 -11.029,83.308 -16.083,103.667c-44.062,-0.129 -80.733,4.183 -119.558,43.012" style="fill:#e0ca8d;fill-rule:nonzero;"/><path d="M616.596,295.75c19.567,49.121 31.762,98.146 24.212,152.071c-7.55,53.929 -0.346,123.579 62.379,154.546c62.729,30.963 177.192,16.942 178.2,-117.875c-27.033,57.162 -101.45,102.462 -153.221,60.4c-51.767,-42.062 -46.033,-103.542 -47.283,-150.996c-1.25,-47.454 -72.708,-119.283 -64.288,-98.146" style="fill:#a05816;fill-rule:nonzero;"/><path d="M526.484,221.332c70.104,-18.333 161.779,-32.354 230.804,44.221c69.025,76.575 74.612,133.737 71.279,187.662c-3.329,53.925 -37.629,110.012 -99.754,72.262c13.208,28.379 73.229,49.454 117.183,12.325c43.95,-37.133 51.5,-111.55 19.146,-192.442c0,0 87.163,49.613 115.204,140.212c28.042,90.596 48.733,280.417 34.712,395.817c28.042,-76.575 31.679,-103.462 32.554,-174.683c0.879,-71.221 0,-293.942 0,-293.942c0,0 -242.596,-172.187 -295.042,-205c-52.446,-32.808 -163.533,-64.087 -226.087,13.567" style="fill:#e29e4f;fill-rule:nonzero;"/><path d="M513.303,396.275c-19.958,9.25 -43.221,30.558 -40.704,79.562c0.512,10.017 8.796,17.792 18.708,17.792c0.325,0 0.65,-0.008 0.979,-0.025c10.337,-0.533 18.296,-9.346 17.762,-19.688c-1.562,-30.471 10.108,-39.487 19.021,-43.617c18.017,-8.346 36.8,-3.792 46.754,11.333c5.692,8.654 17.321,11.058 25.967,5.358c8.65,-5.688 11.054,-17.317 5.358,-25.967c-20.254,-30.792 -58.846,-40.967 -93.846,-24.75" style="fill-rule:nonzero;"/><path d="M674.835,809.741c13.942,4.45 29.596,2.258 44.1,-5.95c8.967,8.979 20.192,13.971 31.688,13.971c1.279,0 2.562,-0.062 3.842,-0.188c13.529,-1.317 24.9,-9.567 30.408,-22.067c2.321,-5.263 -0.067,-11.408 -5.333,-13.733c-5.254,-2.321 -11.408,0.071 -13.733,5.333c-2.467,5.596 -7.337,9.146 -13.358,9.729c-7.404,0.767 -15.121,-3.121 -21.079,-10.362l0,-11.146c9.221,-2.312 15.296,-8.175 15.296,-15.629c0,-9.679 -10.225,-16.704 -24.312,-16.704c-14.087,0 -24.312,7.025 -24.312,16.704c0,6.675 4.862,12.083 12.496,14.8l0,10.05c-9.983,6.221 -20.471,8.188 -29.363,5.342c-6.721,-2.142 -11.692,-6.921 -13.646,-13.104c-1.729,-5.488 -7.579,-8.529 -13.071,-6.796c-5.488,1.729 -8.529,7.583 -6.796,13.071c4.017,12.721 13.921,22.446 27.175,26.679" style="fill-rule:nonzero;"/><path d="M762.16,732.243c4.946,2.942 11.333,1.329 14.279,-3.617c4.817,-8.087 12.542,-12.212 21.15,-11.396c9.121,0.896 17.004,7.071 20.079,15.725c1.521,4.263 5.529,6.929 9.817,6.929c1.158,0 2.333,-0.196 3.492,-0.608c5.417,-1.925 8.25,-7.883 6.321,-13.304c-5.771,-16.221 -20.554,-27.796 -37.675,-29.471c-16.804,-1.675 -32.1,6.383 -41.079,21.462c-2.946,4.946 -1.329,11.338 3.617,14.279" style="fill-rule:nonzero;"/><path d="M1182.704,438.238c-2.121,2.862 -21.463,27.296 -50.388,10.546l-369.037,-256.404c-76.15,-52.904 -178.475,-52.904 -254.621,0l-368.983,256.362c-19.608,11.108 -43.687,5.271 -55.062,-13.471c-10.862,-17.887 -4.717,-40.542 14.317,-53.671l135.733,-89.842c5.246,-3.471 8.4,-9.342 8.4,-15.633l0,-178.925c0,-9.946 8.088,-18.033 18.029,-18.033l47.879,0c9.946,0 18.033,8.088 18.033,18.033l0,98.542c0,6.904 3.796,13.246 9.875,16.517c6.088,3.271 13.471,2.929 19.225,-0.883l127.379,-84.308c0.112,-0.079 0.233,-0.158 0.346,-0.238c91,-63.221 213.275,-63.225 304.4,0.087l383.7,261.954c17.963,14.242 18.425,39.058 10.775,49.367m-153.833,341.829c0,128.337 -104.412,232.754 -232.754,232.754l-251.904,0c-36.367,0 -77.937,-19.729 -101.096,-47.979c-12.5,-15.25 -17.921,-30.987 -15.254,-44.312c6.454,-32.271 21.117,-60.142 125.788,-47.708c35.537,37.979 83.708,58.65 145.55,62.483c3.1,0.192 6.233,0.292 9.396,0.292c76.292,0 168.583,-55.262 184.354,-134.808c14.192,-71.579 17.204,-120.775 -2.471,-223.067c-1.263,-6.554 -5.908,-11.942 -12.204,-14.15c-6.304,-2.217 -13.296,-0.908 -18.371,3.421c-1.408,1.196 -31.358,26.771 -60.446,54.492c-56.396,-29.754 -116.912,-30.862 -184.525,-3.475c-8.817,3.571 -13.633,12.904 -11.113,22.075c0.342,1.421 7.988,35.312 -27.704,80.783c-13.596,17.317 -35.333,31.175 -60.829,40.225c-0.242,0.075 -0.483,0.154 -0.729,0.238c-0.275,0.096 -0.55,0.196 -0.817,0.308c-30.192,10.429 -65.454,14.138 -98.621,8.938c-10.963,-1.717 -20.867,-3.746 -29.875,-6.079c13.425,-12.283 22.396,-26.9 26.017,-42.933c4.483,-19.858 0.175,-40.871 -11.25,-54.833c-7.196,-8.796 -17.533,-13.742 -29.892,-14.3c-15.542,-0.729 -34.021,5.737 -52.85,17.992c4.742,-18 14.133,-37.546 24.875,-59.837c7.129,-14.796 14.5,-30.096 21.533,-47.004c25.483,-61.279 37.033,-105.975 41.196,-159.412c3.029,-38.863 20.937,-95.096 61.987,-137.087l63.192,-43.9c63.342,-44.017 148.471,-44.021 211.829,0l47.546,33.033c15.717,11.258 38.712,40.183 47.275,56.629c23.337,44.833 26.896,95.417 25.771,129.958c-1.996,61.487 -20.646,88.071 -68.804,98.087c-19.913,4.146 -40.046,-0.392 -56.646,-12.788c-19.075,-14.237 -31.683,-37.412 -33.737,-62c-0.788,-9.438 -0.983,-20.808 -1.192,-32.846c-0.354,-20.396 -0.754,-43.512 -4.229,-64.367c-6.042,-36.237 -35.004,-78.783 -58.267,-95.783c-8.358,-6.104 -20.092,-4.283 -26.204,4.075c-6.108,8.363 -4.283,20.092 4.075,26.204c16.567,12.104 39.137,46.05 43.404,71.671c3.021,18.113 3.379,38.821 3.725,58.846c0.221,12.675 0.429,24.65 1.321,35.321c2.975,35.646 20.712,68.058 48.671,88.929c19.183,14.321 41.5,21.758 64.5,21.758c7.358,0 14.796,-0.762 22.213,-2.304c84.162,-17.504 96.933,-80.587 98.654,-133.583c1.075,-33.058 -1.817,-79.329 -19.179,-124.342l148.092,102.892l0,357.496Zm-423.258,-36.05c11.333,-14.438 19.225,-28.242 24.729,-40.975c2.842,-0.608 5.85,-0.792 8.979,-0.396c8.592,1.104 19.1,6.9 22.842,19.842c1.317,4.562 5.483,7.529 10.004,7.529c0.954,0 1.929,-0.133 2.896,-0.417c5.525,-1.596 8.712,-7.367 7.112,-12.896c-5.467,-18.929 -20.871,-32.237 -40.192,-34.721c-1.404,-0.179 -2.8,-0.279 -4.188,-0.338c3.558,-13.554 4.438,-25.112 4.283,-33.796c55.567,-19.25 104.929,-15.004 150.533,12.867c7.333,4.471 16.762,3.404 22.904,-2.608c14.712,-14.429 30.925,-29.242 43.904,-40.833c12.058,75.1 8.608,116.383 -3.254,176.221c-10.325,52.058 -80.15,108.913 -154.646,104.383c-77.542,-4.804 -127.771,-39.413 -156.8,-108.504c26.208,-12.05 47.383,-28.15 60.892,-45.358m-362.55,36.05l0,-169.467c0,-81.708 51.142,-115.396 73.129,-126.087c16.392,-7.971 30.108,-10.279 38.992,-10.188c-6.113,23.021 -14.579,47.071 -26.129,74.85c-6.637,15.967 -13.783,30.792 -20.692,45.133c-20.525,42.588 -38.233,79.446 -29.688,119.742c0.004,0.029 0.008,0.054 0.013,0.083c0.096,0.433 0.146,0.862 0.246,1.3c15.113,66.675 81.646,84.546 130.375,92.188c35.583,5.583 69.846,2.746 100.1,-5.479c4.454,10.804 9.383,20.912 14.767,30.383c-64.058,-3.342 -118.996,10.208 -133.083,80.646c-4.912,24.546 3.267,51.342 23.025,75.442c6.025,7.35 12.954,14.196 20.512,20.483c-108.754,-19.508 -191.567,-114.75 -191.567,-229.029m0,-357.496l143.604,-99.771c-10.433,25.2 -17.108,51.929 -19.175,78.454c-0.967,12.383 -2.375,24.279 -4.321,36.067c-17.583,-2.013 -39.258,2.162 -61.221,12.437c-23.604,11.038 -43.425,27.012 -58.887,46.642l0,-73.829Zm951.408,-63.675c-0.292,-0.229 -0.592,-0.446 -0.9,-0.654l-384.071,-262.208c-103.742,-72.075 -243.112,-72.121 -346.892,-0.121l-98.104,64.933l0,-63.646c0,-30.621 -24.912,-55.533 -55.533,-55.533l-47.879,0c-30.621,0 -55.529,24.913 -55.529,55.533l0,168.85l-127.629,84.479c-35.621,24.567 -46.529,69.363 -25.379,104.204c22.237,36.625 69.087,48.05 106.658,26.029c0.413,-0.246 0.821,-0.504 1.212,-0.775l45.138,-31.363l0,331.442c0,149.017 121.233,270.254 270.254,270.254l320.3,0c149.017,0 270.254,-121.237 270.254,-270.254l0,-331.442l45.138,31.363c0.362,0.25 0.737,0.492 1.117,0.717c13.513,8.029 26.925,11.442 39.537,11.442c25.346,0 47.467,-13.779 60.658,-31.562c19.513,-26.3 16.779,-74.529 -18.35,-101.687" style="fill-rule:nonzero;"/></svg>