<?xml version="1.0" encoding="UTF-8" standalone="no"?><!DOCTYPE svg PUBLIC "-//W3C//DTD SVG 1.1//EN" "http://www.w3.org/Graphics/SVG/1.1/DTD/svg11.dtd"><svg width="100%" height="100%" viewBox="0 0 1280 1113" version="1.1" xmlns="http://www.w3.org/2000/svg" xmlns:xlink="http://www.w3.org/1999/xlink" xml:space="preserve" xmlns:serif="http://www.serif.com/" style="fill-rule:evenodd;clip-rule:evenodd;stroke-linejoin:round;stroke-miterlimit:2;"><rect id="HomiesLogoSVG" x="0" y="0" width="1279.026" height="1112.425" style="fill:none;"/><g id="color"><path d="M475.958,1091.592c-160.504,0 -291.088,-130.583 -291.088,-291.088l0,-291.596l-12.413,8.625c-0.879,0.604 -1.737,1.15 -2.613,1.663c-15.638,9.167 -33.342,14.025 -51.15,14.025c-34.517,0 -65.85,-17.658 -83.804,-47.237c-26.971,-44.421 -13.488,-101.242 31.358,-132.167l118.621,-78.525l0,-157.654c0,-42.108 34.254,-76.367 76.367,-76.367l47.875,0c42.108,0 76.367,34.258 76.367,76.367l0,24.871l65.588,-43.408c54.354,-37.654 118.333,-57.55 185.042,-57.55c66.867,0 130.983,19.992 185.421,57.808l383.933,262.117c0.617,0.417 1.254,0.879 1.871,1.358c45.346,35.058 48.163,95.829 22.358,130.6c-18.567,25.038 -47.496,39.988 -77.387,39.988c-17.254,0 -34.138,-4.837 -50.183,-14.371c-0.829,-0.496 -1.617,-1 -2.379,-1.533l-12.396,-8.613l0,291.6c0,160.504 -130.579,291.088 -291.088,291.088l-320.3,0Z" style="fill:#fff;fill-rule:nonzero;"/><path d="M309.113,20.438l-47.879,0c-53.596,0 -97.196,43.604 -97.196,97.2l0,146.463l-108.958,72.121c-0.221,0.146 -0.442,0.296 -0.658,0.446c-54.071,37.292 -70.125,106.129 -37.342,160.129c21.767,35.854 59.754,57.258 101.612,57.258c15.488,0 30.892,-3.029 45.346,-8.854l0,255.304c0,171.996 139.925,311.921 311.917,311.921l320.304,0c171.992,0 311.921,-139.925 311.921,-311.921l0,-255.15c14.287,5.917 29.054,8.9 44.125,8.9c36.458,0 71.642,-18.1 94.125,-48.413c31.675,-42.683 28.658,-116.958 -26.329,-159.471c-1,-0.771 -1.975,-1.475 -2.963,-2.15l-383.871,-262.071c-57.913,-40.192 -126.083,-61.433 -197.158,-61.433c-70.896,0 -138.908,21.138 -196.725,61.133l-33.979,22.488c-6.5,-47.325 -47.204,-83.9 -96.292,-83.9m0,41.667c30.621,0 55.533,24.913 55.533,55.533l0,63.646l98.104,-64.933c51.862,-35.979 112.604,-53.967 173.354,-53.967c60.817,0 121.642,18.033 173.533,54.087l384.075,262.212c0.304,0.204 0.608,0.425 0.9,0.65c35.129,27.158 37.862,75.392 18.346,101.688c-13.188,17.783 -35.308,31.567 -60.654,31.567c-12.617,0 -26.025,-3.417 -39.542,-11.446c-0.375,-0.225 -0.75,-0.467 -1.112,-0.717l-45.138,-31.362l0,331.442c0,149.017 -121.237,270.254 -270.254,270.254l-320.304,0c-149.017,0 -270.25,-121.237 -270.25,-270.254l0,-331.438l-45.138,31.358c-0.396,0.271 -0.8,0.533 -1.212,0.775c-12.921,7.571 -26.929,11.188 -40.662,11.188c-26.212,0 -51.404,-13.183 -65.996,-37.217c-21.154,-34.842 -10.242,-79.637 25.379,-104.204l127.629,-84.479l0,-168.85c0,-30.621 24.908,-55.533 55.529,-55.533l47.879,0" style="fill:#fff;fill-rule:nonzero;"/><path d="M297.379,731.746c-10.583,-46.667 23,-92.083 49.125,-154.917c15.208,-36.583 24.917,-66.417 31.125,-94.417c4.5,-20.083 7.125,-39.208 8.708,-59.25c3.708,-47.917 25.5,-106.708 68.333,-149.917l0.042,-0.042l64.792,-45c70.083,-48.708 163.125,-48.708 233.208,0l47.75,33.208l247.292,171.792l0,367.292c0,138.917 -112.583,251.5 -251.5,251.5l-251.917,0c-71.083,0 -145.458,-61 -134.708,-114.708c11.833,-59.167 56.667,-74.417 153.333,-61.792c38.333,44.25 88.5,58.5 137.542,61.542c70.292,4.333 159.875,-47.292 174.208,-119.458c14.292,-72.167 16.167,-118.833 -2.5,-215.875c0,0 -37.958,32.333 -69.667,63.458c-67.208,-41.083 -131.292,-29.25 -180.417,-9.333c0,0 7.875,28.667 -12.958,69.083c-4.583,8.833 -10.5,18.208 -18.167,27.958c-16.542,21.083 -41.708,36.75 -70.167,46.625c-34.458,11.958 -73.75,15.5 -108.5,10.042c-63.458,-9.958 -104.417,-31.167 -114.958,-77.792" style="fill:#c57837;fill-rule:nonzero;"/><path d="M355.779,553.55c-17.125,49.504 -56.617,101.029 -60.179,154.15c-3.562,53.117 47.779,102.942 153.804,104.275c106.029,1.333 169.679,-61.158 172.725,-156.146c-106.2,66.275 -181.212,-42.863 -186.417,-90.983c-4.146,-38.35 -17.375,-81.654 -50.229,-131.233c0,0 -6.9,54.021 -29.704,119.938" style="fill:#fff;fill-rule:nonzero;"/><path d="M224.462,433.204l230.208,-159.958c-42.833,43.208 -64.625,102 -68.333,149.917c-1.583,20.042 -4.208,39.167 -8.708,59.25c-28.042,-23.417 -153.167,16.125 -153.167,148.625l0,-197.833Z" style="fill:#f8edc4;fill-rule:nonzero;"/><path d="M1183.129,394.163c26.708,20.667 28.417,57.292 14.792,75.667c-13.917,18.75 -43.458,34.292 -75.583,15.208l-74.583,-51.833l-247.292,-171.792l-47.75,-33.208c-70.083,-48.708 -163.125,-48.708 -233.208,0l-64.792,45l-0.042,0.042l-230.208,159.958l-74.583,51.833c-27.792,16.292 -63.958,8.75 -81.167,-19.583c-16.167,-26.667 -7.458,-60.125 20,-79.042l135.75,-89.833l0,-178.958c0,-20.292 16.458,-36.75 36.792,-36.75l47.875,0c20.292,0 36.75,16.458 36.75,36.75l0,98.542l127.375,-84.292c97.917,-68.042 227.792,-68.042 325.667,0l384.208,262.292Z" style="fill:#c1272d;fill-rule:nonzero;"/><path d="M544.338,1051.996l-68.375,0c-138.917,0 -251.5,-112.583 -251.5,-251.5l0,-169.458c0,-132.5 125.125,-172.042 153.167,-148.625c-6.208,28 -15.917,57.833 -31.125,94.417c-26.125,62.833 -59.708,108.25 -49.125,154.917c10.542,46.625 51.5,67.833 114.958,77.792c34.75,5.458 74.042,1.917 108.5,-10.042c11.083,32 25.5,56.833 42.125,76c-96.667,-12.625 -141.5,2.625 -153.333,61.792c-10.75,53.708 63.625,114.708 134.708,114.708" style="fill:#e0ca8d;fill-rule:nonzero;"/><path d="M609.171,724.913c20.833,-40.417 12.958,-69.083 12.958,-69.083c49.125,-19.917 113.208,-31.75 180.417,9.333c31.708,-31.125 69.667,-63.458 69.667,-63.458c18.667,97.042 16.792,143.708 2.5,215.875c-14.333,72.167 -103.917,123.792 -174.208,119.458c-49.042,-3.042 -99.208,-17.292 -137.542,-61.542c-16.625,-19.167 -31.042,-44 -42.125,-76c28.458,-9.875 53.625,-25.542 70.167,-46.625c7.667,-9.75 13.583,-19.125 18.167,-27.958" style="fill:#f8edc4;fill-rule:nonzero;"/><path d="M755.362,930.35c58.796,32.45 117.05,74.933 225.125,41.337c-66.246,50.963 -88.963,80.308 -205.025,80.308c-116.063,0 -182.363,0.329 -247.413,0c-65.05,-0.329 -128.85,-62.421 -118.421,-114.708c9.179,-46.017 43.467,-75.5 147.921,-62.058c87.546,65.463 137.717,69.488 197.813,55.121" style="fill:#fff;fill-rule:nonzero;"/><path d="M394.421,727.146c51.671,34.392 165.808,42.662 223.146,-22.025c-51.462,88.142 -96.658,111.529 -192.004,106.042c-95.342,-5.483 -67.642,-83.921 -31.142,-84.017" style="fill:#c3c7c9;fill-rule:nonzero;"/><path d="M528.05,1051.996c-78.375,-4.267 -120.783,-65.613 -118.421,-114.708c2.362,-49.096 64.85,-87.588 147.921,-62.058l34.079,29.292c-60.3,-5.025 -100.329,7.538 -113.058,38.942c-12.496,30.825 -8.796,77.887 103.237,98.483l-53.758,10.05Z" style="fill:#c3c7c9;fill-rule:nonzero;"/><path d="M591.004,752.871c3.017,68.054 22.458,109.121 72.167,131.125c49.521,21.925 106.867,25.517 178.042,-4.933c-100.467,65.058 -174.475,77.662 -239.9,25.679c-65.429,-51.979 -78.167,-73.196 -80.475,-105.246c0,0 52,-18.667 70.167,-46.625" style="fill:#e0ca8d;fill-rule:nonzero;"/><path d="M308.383,758.521c8.167,73.921 43.408,121.604 146.288,119.154c64.167,-10.029 108.292,-2.179 108.292,-2.179c0,0 -37.987,-48.546 -42.125,-76c-56.246,17.55 -156.667,26.038 -212.454,-40.975" style="fill:#ad916c;fill-rule:nonzero;"/><path d="M258.071,525.425c12.942,-72.262 87.933,-135.896 135.642,-146.679c-8.229,54.867 -11.029,83.308 -16.083,103.667c-44.062,-0.129 -80.733,4.183 -119.558,43.013" style="fill:#e0ca8d;fill-rule:nonzero;"/><path d="M616.737,316.188c19.567,49.121 31.763,98.146 24.212,152.071c-7.55,53.929 -0.346,123.579 62.379,154.546c62.729,30.963 177.192,16.942 178.2,-117.875c-27.033,57.163 -101.45,102.463 -153.221,60.4c-51.767,-42.062 -46.033,-103.542 -47.283,-150.996c-1.25,-47.454 -72.708,-119.283 -64.287,-98.146" style="fill:#a05816;fill-rule:nonzero;"/><path d="M526.625,241.771c70.104,-18.333 161.779,-32.354 230.804,44.221c69.025,76.575 74.612,133.738 71.279,187.663c-3.329,53.925 -37.629,110.012 -99.754,72.262c13.208,28.379 73.229,49.454 117.183,12.325c43.95,-37.133 51.5,-111.55 19.146,-192.442c0,0 87.163,49.613 115.204,140.213c28.042,90.596 48.733,280.417 34.712,395.817c28.042,-76.575 31.679,-103.463 32.554,-174.683c0.879,-71.221 0,-293.942 0,-293.942c0,0 -242.596,-172.187 -295.042,-205c-52.446,-32.808 -163.533,-64.088 -226.088,13.567" style="fill:#e29e4f;fill-rule:nonzero;"/><g id="outline-paths"><path d="M513.442,416.712c-19.958,9.25 -43.221,30.558 -40.704,79.563c0.513,10.017 8.796,17.792 18.708,17.792c0.325,0 0.65,-0.008 0.979,-0.025c10.337,-0.533 18.296,-9.346 17.762,-19.688c-1.562,-30.471 10.108,-39.487 19.021,-43.617c18.017,-8.346 36.8,-3.792 46.754,11.333c5.692,8.654 17.321,11.058 25.967,5.358c8.65,-5.688 11.054,-17.317 5.358,-25.967c-20.254,-30.792 -58.846,-40.967 -93.846,-24.75" style="fill-rule:nonzero;"/><path d="M674.975,830.179c13.942,4.45 29.596,2.258 44.1,-5.95c8.967,8.979 20.192,13.971 31.688,13.971c1.279,0 2.562,-0.062 3.842,-0.188c13.529,-1.317 24.9,-9.567 30.408,-22.067c2.321,-5.263 -0.067,-11.408 -5.333,-13.733c-5.254,-2.321 -11.408,0.071 -13.733,5.333c-2.467,5.596 -7.338,9.146 -13.358,9.729c-7.404,0.767 -15.121,-3.121 -21.079,-10.362l0,-11.146c9.221,-2.312 15.296,-8.175 15.296,-15.629c0,-9.679 -10.225,-16.704 -24.312,-16.704c-14.087,0 -24.312,7.025 -24.312,16.704c0,6.675 4.862,12.083 12.496,14.8l0,10.05c-9.983,6.221 -20.471,8.187 -29.363,5.342c-6.721,-2.142 -11.692,-6.921 -13.646,-13.104c-1.729,-5.488 -7.579,-8.529 -13.071,-6.796c-5.487,1.729 -8.529,7.583 -6.796,13.071c4.017,12.721 13.921,22.446 27.175,26.679" style="fill-rule:nonzero;"/><path d="M762.3,752.679c4.946,2.942 11.333,1.329 14.279,-3.617c4.817,-8.087 12.542,-12.212 21.15,-11.396c9.121,0.896 17.004,7.071 20.079,15.725c1.521,4.263 5.529,6.929 9.817,6.929c1.158,0 2.333,-0.196 3.492,-0.608c5.417,-1.925 8.25,-7.883 6.321,-13.304c-5.771,-16.221 -20.554,-27.796 -37.675,-29.471c-16.804,-1.675 -32.1,6.383 -41.079,21.463c-2.946,4.946 -1.329,11.338 3.617,14.279" style="fill-rule:nonzero;"/><path d="M1182.846,458.675c-2.121,2.862 -21.463,27.296 -50.388,10.546l-369.038,-256.404c-76.15,-52.904 -178.475,-52.904 -254.621,0l-368.983,256.363c-19.608,11.108 -43.688,5.271 -55.062,-13.471c-10.863,-17.888 -4.717,-40.542 14.317,-53.671l135.733,-89.842c5.246,-3.471 8.4,-9.342 8.4,-15.633l0,-178.925c0,-9.946 8.087,-18.033 18.029,-18.033l47.879,0c9.946,0 18.033,8.088 18.033,18.033l0,98.542c0,6.904 3.796,13.246 9.875,16.517c6.088,3.271 13.471,2.929 19.225,-0.883l127.379,-84.308c0.112,-0.079 0.233,-0.158 0.346,-0.238c91,-63.221 213.275,-63.225 304.4,0.088l383.7,261.954c17.962,14.242 18.425,39.058 10.775,49.367m-153.833,341.829c0,128.338 -104.413,232.754 -232.754,232.754l-251.904,0c-36.367,0 -77.937,-19.729 -101.096,-47.979c-12.5,-15.25 -17.921,-30.987 -15.254,-44.312c6.454,-32.271 21.117,-60.142 125.788,-47.708c35.538,37.979 83.708,58.65 145.55,62.483c3.1,0.192 6.233,0.292 9.396,0.292c76.292,0 168.583,-55.262 184.354,-134.808c14.192,-71.579 17.204,-120.775 -2.471,-223.067c-1.262,-6.554 -5.908,-11.942 -12.204,-14.15c-6.304,-2.217 -13.296,-0.908 -18.371,3.421c-1.408,1.196 -31.358,26.771 -60.446,54.492c-56.396,-29.754 -116.913,-30.863 -184.525,-3.475c-8.817,3.571 -13.633,12.904 -11.112,22.075c0.342,1.421 7.987,35.312 -27.704,80.783c-13.596,17.317 -35.333,31.175 -60.829,40.225c-0.242,0.075 -0.483,0.154 -0.729,0.238c-0.275,0.096 -0.55,0.196 -0.817,0.308c-30.192,10.429 -65.454,14.137 -98.621,8.937c-10.963,-1.717 -20.867,-3.746 -29.875,-6.079c13.425,-12.283 22.396,-26.9 26.017,-42.933c4.483,-19.858 0.175,-40.871 -11.25,-54.833c-7.196,-8.796 -17.533,-13.742 -29.892,-14.3c-15.542,-0.729 -34.021,5.737 -52.85,17.992c4.742,-18 14.133,-37.546 24.875,-59.837c7.129,-14.796 14.5,-30.096 21.533,-47.004c25.483,-61.279 37.033,-105.975 41.196,-159.413c3.029,-38.862 20.938,-95.096 61.988,-137.088l63.192,-43.9c63.342,-44.017 148.471,-44.021 211.829,0l47.546,33.033c15.717,11.258 38.713,40.183 47.275,56.629c23.337,44.833 26.896,95.417 25.771,129.958c-1.996,61.487 -20.646,88.071 -68.804,98.087c-19.912,4.146 -40.046,-0.392 -56.646,-12.788c-19.075,-14.237 -31.683,-37.413 -33.737,-62c-0.787,-9.438 -0.983,-20.808 -1.192,-32.846c-0.354,-20.396 -0.754,-43.513 -4.229,-64.367c-6.042,-36.238 -35.004,-78.783 -58.267,-95.783c-8.358,-6.104 -20.092,-4.283 -26.204,4.075c-6.108,8.363 -4.283,20.092 4.075,26.204c16.567,12.104 39.138,46.05 43.404,71.671c3.021,18.112 3.379,38.821 3.725,58.846c0.221,12.675 0.429,24.65 1.321,35.321c2.975,35.646 20.712,68.058 48.671,88.929c19.183,14.321 41.5,21.758 64.5,21.758c7.358,0 14.796,-0.763 22.212,-2.304c84.163,-17.504 96.933,-80.588 98.654,-133.583c1.075,-33.058 -1.817,-79.329 -19.179,-124.342l148.092,102.892l0,357.496Zm-423.258,-36.05c11.333,-14.438 19.225,-28.242 24.729,-40.975c2.842,-0.608 5.85,-0.792 8.979,-0.396c8.592,1.104 19.1,6.9 22.842,19.842c1.317,4.562 5.483,7.529 10.004,7.529c0.954,0 1.929,-0.133 2.896,-0.417c5.525,-1.596 8.713,-7.367 7.112,-12.896c-5.467,-18.929 -20.871,-32.237 -40.192,-34.721c-1.404,-0.179 -2.8,-0.279 -4.188,-0.337c3.558,-13.554 4.438,-25.112 4.283,-33.796c55.567,-19.25 104.929,-15.004 150.533,12.867c7.333,4.471 16.763,3.404 22.904,-2.608c14.713,-14.429 30.925,-29.242 43.904,-40.833c12.058,75.1 8.608,116.383 -3.254,176.221c-10.325,52.058 -80.15,108.913 -154.646,104.383c-77.542,-4.804 -127.771,-39.413 -156.8,-108.504c26.208,-12.05 47.383,-28.15 60.892,-45.358m-362.55,36.05l0,-169.467c0,-81.708 51.142,-115.396 73.129,-126.087c16.392,-7.971 30.108,-10.279 38.992,-10.188c-6.113,23.021 -14.579,47.071 -26.129,74.85c-6.637,15.967 -13.783,30.792 -20.692,45.133c-20.525,42.587 -38.233,79.446 -29.688,119.742c0.004,0.029 0.008,0.054 0.012,0.083c0.096,0.433 0.146,0.862 0.246,1.3c15.113,66.675 81.646,84.546 130.375,92.188c35.583,5.583 69.846,2.746 100.1,-5.479c4.454,10.804 9.383,20.913 14.767,30.383c-64.058,-3.342 -118.996,10.208 -133.083,80.646c-4.912,24.546 3.267,51.342 23.025,75.442c6.025,7.35 12.954,14.196 20.513,20.483c-108.754,-19.508 -191.567,-114.75 -191.567,-229.029m0,-357.496l143.604,-99.771c-10.433,25.2 -17.108,51.929 -19.175,78.454c-0.967,12.383 -2.375,24.279 -4.321,36.067c-17.583,-2.012 -39.258,2.163 -61.221,12.438c-23.604,11.038 -43.425,27.013 -58.888,46.642l0,-73.829Zm951.408,-63.675c-0.292,-0.229 -0.592,-0.446 -0.9,-0.654l-384.071,-262.208c-103.742,-72.075 -243.112,-72.121 -346.892,-0.121l-98.104,64.933l0,-63.646c0,-30.621 -24.913,-55.533 -55.533,-55.533l-47.879,0c-30.621,0 -55.529,24.913 -55.529,55.533l0,168.85l-127.629,84.479c-35.621,24.567 -46.529,69.362 -25.379,104.204c22.237,36.625 69.087,48.05 106.658,26.029c0.412,-0.246 0.821,-0.504 1.212,-0.775l45.138,-31.362l0,331.442c0,149.017 121.233,270.254 270.254,270.254l320.3,0c149.017,0 270.254,-121.237 270.254,-270.254l0,-331.442l45.138,31.362c0.362,0.25 0.737,0.492 1.117,0.717c13.512,8.029 26.925,11.442 39.537,11.442c25.346,0 47.467,-13.779 60.658,-31.562c19.513,-26.3 16.779,-74.529 -18.35,-101.688" style="fill-rule:nonzero;"/></g></g></svg>