<?xml version="1.0" encoding="UTF-8" standalone="no"?>
<!DOCTYPE svg PUBLIC "-//W3C//DTD SVG 1.1//EN" "http://www.w3.org/Graphics/SVG/1.1/DTD/svg11.dtd">
<svg width="100%" height="100%" viewBox="0 0 24 24" version="1.1" xmlns="http://www.w3.org/2000/svg" xmlns:xlink="http://www.w3.org/1999/xlink" xml:space="preserve" xmlns:serif="http://www.serif.com/" style="fill-rule:evenodd;clip-rule:evenodd;stroke-linejoin:round;stroke-miterlimit:2;">
    <path id="users" d="M21.307,13.169L21.307,18.722C21.307,20.825 19.604,22.528 17.502,22.528L6.502,22.528C4.399,22.528 2.697,20.825 2.697,18.722L2.697,13.165C2.019,13.524 1.155,13.379 0.642,12.769C0.052,12.069 0.137,11.021 0.837,10.424L10.921,1.868L10.922,1.867C11.546,1.34 12.454,1.34 13.078,1.867L13.079,1.868L23.16,10.422C23.862,11.012 23.948,12.068 23.358,12.769C22.846,13.378 21.985,13.527 21.307,13.169Z"/>
    <path id="users1" serif:id="users" d="M17.974,10.392L12.002,5.326L6.03,10.392L6.03,18.722C6.03,18.983 6.241,19.194 6.502,19.194L17.502,19.194C17.763,19.194 17.974,18.983 17.974,18.722L17.974,10.392Z" style="fill:rgb(191,42,55);"/>
    <g transform="matrix(-0.460203,-0,0,-0.460203,15.90162,16.392596)">
        <path d="M0,7.146C1.187,7.852 2.72,7.465 3.427,6.278C4.583,4.337 6.437,3.347 8.503,3.543C10.692,3.758 12.584,5.24 13.322,7.317C13.687,8.34 14.649,8.98 15.678,8.98C15.956,8.98 16.238,8.933 16.516,8.834C17.816,8.372 18.496,6.942 18.033,5.641C16.648,1.748 13.1,-1.03 8.991,-1.432C4.958,-1.834 1.287,0.1 -0.868,3.719C-1.575,4.906 -1.187,6.44 0,7.146" style="fill-rule:nonzero;"/>
    </g>
</svg>
